# Blender v2.90.1 OBJ File: ''
# www.blender.org
mtllib E.mtl
o E_Cube.004
v -0.278890 -0.135253 0.315390
v -0.278890 0.135253 0.315390
v -0.278890 -0.135253 -0.315390
v -0.278890 0.135253 -0.315390
v 0.024074 -0.135253 0.315390
v 0.024074 0.135253 0.315390
v 0.024074 -0.135253 -0.315390
v 0.024074 0.135253 -0.315390
v -0.278890 -0.135253 0.539474
v -0.278890 0.135253 0.539474
v 0.024074 0.135253 0.539474
v 0.024074 -0.135253 0.539474
v 0.381198 0.135253 0.315390
v 0.381198 -0.135253 0.315390
v 0.381198 0.135253 0.539474
v 0.381198 -0.135253 0.539474
v 0.615709 0.135253 0.315390
v 0.615709 -0.135253 0.315390
v 0.615709 0.135253 0.539474
v 0.615709 -0.135253 0.539474
v 0.381198 0.135253 0.113905
v 0.381198 -0.135253 0.113905
v 0.615709 0.135253 0.113905
v 0.615709 -0.135253 0.113905
v -0.437502 -0.135253 0.315390
v -0.437502 0.135253 0.315390
v -0.437502 -0.135253 0.539474
v -0.437502 0.135253 0.539474
v -0.278890 0.135253 -0.540419
v -0.278890 -0.135253 -0.540419
v 0.024074 -0.135253 -0.540419
v 0.024074 0.135253 -0.540419
v -0.432777 0.135253 -0.315390
v -0.432777 -0.135253 -0.315390
v -0.432777 0.135253 -0.540419
v -0.432777 -0.135253 -0.540419
v 0.354756 0.135253 -0.315390
v 0.354756 -0.135253 -0.315390
v 0.354756 0.135253 -0.540419
v 0.354756 -0.135253 -0.540419
v 0.581401 0.135253 -0.315390
v 0.581401 -0.135253 -0.315390
v 0.581401 0.135253 -0.540419
v 0.581401 -0.135253 -0.540419
v 0.354756 0.135253 -0.071355
v 0.354756 -0.135253 -0.071355
v 0.581401 0.135253 -0.071355
v 0.581401 -0.135253 -0.071355
v -0.278890 -0.135253 0.127854
v -0.278890 0.135253 0.127854
v 0.024074 -0.135253 0.127854
v 0.024074 0.135253 0.127854
v -0.278890 0.135253 -0.093768
v 0.024074 -0.135253 -0.093768
v -0.278890 -0.135253 -0.093768
v 0.024074 0.135253 -0.093768
v 0.202208 0.135253 -0.093768
v 0.202208 0.135253 0.127854
v 0.202208 -0.135253 0.127854
v 0.202208 -0.135253 -0.093768
vt 0.375000 0.162164
vt 0.625000 0.162164
vt 0.625000 0.250000
vt 0.375000 0.250000
vt 0.625000 0.500000
vt 0.375000 0.500000
vt 0.375000 0.500000
vt 0.625000 0.500000
vt 0.375000 0.675673
vt 0.625000 0.675673
vt 0.625000 0.750000
vt 0.375000 0.750000
vt 0.875000 0.750000
vt 0.875000 0.750000
vt 0.625000 0.750000
vt 0.125000 0.675673
vt 0.125000 0.750000
vt 0.875000 0.675673
vt 0.375000 0.750000
vt 0.625000 1.000000
vt 0.375000 1.000000
vt 0.625000 0.750000
vt 0.625000 0.750000
vt 0.875000 0.750000
vt 0.875000 0.750000
vt 0.125000 0.750000
vt 0.625000 0.750000
vt 0.625000 0.750000
vt 0.375000 0.750000
vt 0.375000 0.750000
vt 0.375000 0.750000
vt 0.375000 0.750000
vt 0.375000 0.750000
vt 0.625000 0.750000
vt 0.375000 0.750000
vt 0.625000 0.750000
vt 0.625000 0.000000
vt 0.375000 0.000000
vt 0.375000 0.000000
vt 0.625000 0.000000
vt 0.625000 0.000000
vt 0.375000 0.000000
vt 0.625000 1.000000
vt 0.375000 1.000000
vt 0.125000 0.750000
vt 0.125000 0.750000
vt 0.375000 0.250000
vt 0.625000 0.250000
vt 0.625000 0.500000
vt 0.375000 0.500000
vt 0.125000 0.500000
vt 0.125000 0.500000
vt 0.875000 0.500000
vt 0.875000 0.500000
vt 0.875000 0.500000
vt 0.875000 0.500000
vt 0.375000 0.250000
vt 0.625000 0.250000
vt 0.625000 0.250000
vt 0.375000 0.250000
vt 0.125000 0.500000
vt 0.125000 0.500000
vt 0.375000 0.500000
vt 0.375000 0.500000
vt 0.375000 0.500000
vt 0.625000 0.500000
vt 0.625000 0.500000
vt 0.625000 0.500000
vt 0.375000 0.500000
vt 0.375000 0.500000
vt 0.625000 0.500000
vt 0.625000 0.500000
vt 0.625000 0.587836
vt 0.875000 0.587836
vt 0.125000 0.587836
vt 0.375000 0.587836
vt 0.375000 0.587836
vt 0.375000 0.675673
vt 0.625000 0.074327
vt 0.375000 0.074327
vt 0.625000 0.587836
vt 0.625000 0.675673
vn -1.0000 -0.0000 0.0000
vn 0.0000 0.0000 1.0000
vn 1.0000 0.0000 0.0000
vn 0.0000 1.0000 0.0000
vn 0.0000 -1.0000 0.0000
vn 0.0000 0.0000 -1.0000
usemtl None
s off
f 55/1/1 53/2/1 4/3/1 3/4/1
f 8/5/2 7/6/2 38/7/2 37/8/2
f 51/9/3 52/10/3 6/11/3 5/12/3
f 6/11/4 2/13/4 10/14/4 11/15/4
f 49/16/5 51/9/5 5/12/5 1/17/5
f 52/10/4 50/18/4 2/13/4 6/11/4
f 12/19/2 11/15/2 10/20/2 9/21/2
f 6/11/4 11/15/4 15/22/4 13/23/4
f 10/14/4 2/13/4 26/24/4 28/25/4
f 1/17/5 5/12/5 12/19/5 9/26/5
f 13/23/4 15/22/4 19/27/4 17/28/4
f 11/15/2 12/19/2 16/29/2 15/22/2
f 5/12/6 6/11/6 13/23/6 14/30/6
f 12/19/5 5/12/5 14/30/5 16/29/5
f 18/31/3 17/28/3 19/27/3 20/32/3
f 17/28/3 18/31/3 24/33/3 23/34/3
f 16/29/5 14/30/5 18/31/5 20/32/5
f 15/22/2 16/29/2 20/32/2 19/27/2
f 22/35/6 21/36/6 23/34/6 24/33/6
f 13/23/4 17/28/4 23/34/4 21/36/4
f 14/30/1 13/23/1 21/36/1 22/35/1
f 18/31/5 14/30/5 22/35/5 24/33/5
f 26/37/1 25/38/1 27/39/1 28/40/1
f 2/41/6 1/42/6 25/38/6 26/37/6
f 9/21/2 10/20/2 28/43/2 27/44/2
f 1/17/5 9/26/5 27/45/5 25/46/5
f 30/47/6 29/48/6 32/49/6 31/50/6
f 7/6/5 3/51/5 30/52/5 31/50/5
f 4/53/4 8/5/4 32/49/4 29/54/4
f 4/53/4 29/54/4 35/55/4 33/56/4
f 34/57/1 33/58/1 35/59/1 36/60/1
f 3/4/2 4/3/2 33/58/2 34/57/2
f 30/52/5 3/51/5 34/61/5 36/62/5
f 29/48/6 30/47/6 36/60/6 35/59/6
f 38/7/5 40/63/5 44/64/5 42/65/5
f 32/49/4 8/5/4 37/8/4 39/66/4
f 31/50/6 32/49/6 39/66/6 40/63/6
f 7/6/5 31/50/5 40/63/5 38/7/5
f 41/67/3 42/65/3 44/64/3 43/68/3
f 38/7/5 42/65/5 48/69/5 46/70/5
f 39/66/4 37/8/4 41/67/4 43/68/4
f 40/63/6 39/66/6 43/68/6 44/64/6
f 45/71/2 46/70/2 48/69/2 47/72/2
f 37/8/1 38/7/1 46/70/1 45/71/1
f 41/67/4 37/8/4 45/71/4 47/72/4
f 42/65/3 41/67/3 47/72/3 48/69/3
f 56/73/4 53/74/4 50/18/4 52/10/4
f 55/75/5 54/76/5 51/9/5 49/16/5
f 51/9/5 54/76/5 60/77/5 59/78/5
f 1/42/1 2/41/1 50/79/1 49/80/1
f 7/6/3 8/5/3 56/73/3 54/76/3
f 3/51/5 7/6/5 54/76/5 55/75/5
f 8/5/4 4/53/4 53/74/4 56/73/4
f 49/80/1 50/79/1 53/2/1 55/1/1
f 60/77/3 57/81/3 58/82/3 59/78/3
f 56/73/4 52/10/4 58/82/4 57/81/4
f 54/76/6 56/73/6 57/81/6 60/77/6
f 52/10/2 51/9/2 59/78/2 58/82/2
