# Blender v2.90.1 OBJ File: ''
# www.blender.org
mtllib O.mtl
o O_Cylinder
v 0.012143 0.113219 -0.330610
v 0.012143 -0.113219 -0.342472
v 0.088560 0.113219 -0.292740
v 0.091612 -0.113219 -0.303244
v 0.147471 0.113219 -0.187808
v 0.152876 -0.113219 -0.194546
v 0.175380 0.113219 -0.039851
v 0.181899 -0.113219 -0.041280
v 0.165893 0.113219 0.117236
v 0.172034 -0.113219 0.121442
v 0.121184 0.113219 0.247465
v 0.125539 -0.113219 0.256344
v 0.051495 0.113219 0.321003
v 0.053066 -0.113219 0.332520
v -0.027209 0.113219 0.321003
v -0.028781 -0.113219 0.332520
v -0.096899 0.113219 0.247465
v -0.101254 -0.113219 0.256344
v -0.141608 0.113219 0.117236
v -0.147749 -0.113219 0.121442
v -0.151094 0.113219 -0.039851
v -0.157614 -0.113219 -0.041280
v -0.123185 0.113219 -0.187808
v -0.128591 -0.113219 -0.194546
v -0.064274 0.113219 -0.292740
v -0.067327 -0.113219 -0.303244
v -0.003682 0.113219 -0.566061
v 0.245055 0.113219 -0.501222
v 0.436809 0.113219 -0.321559
v 0.527652 0.113219 -0.068231
v 0.496773 0.113219 0.200728
v 0.351245 0.113219 0.423703
v 0.124408 0.113219 0.549612
v -0.131773 0.113219 0.549612
v -0.358610 0.113219 0.423703
v -0.504138 0.113219 0.200728
v -0.535017 0.113219 -0.068231
v -0.444174 0.113219 -0.321559
v -0.252419 0.113219 -0.501222
v 0.012143 -0.047941 -0.330610
v 0.088560 -0.047941 -0.292740
v 0.147471 -0.047941 -0.187808
v 0.175380 -0.047941 -0.039851
v 0.165893 -0.047941 0.117236
v 0.121184 -0.047941 0.247465
v 0.051495 -0.047941 0.321003
v -0.027209 -0.047941 0.321003
v -0.096899 -0.047941 0.247465
v -0.141608 -0.047941 0.117236
v -0.151094 -0.047941 -0.039851
v -0.123185 -0.047941 -0.187808
v -0.064274 -0.047941 -0.292740
v 0.245055 -0.113219 -0.501222
v -0.003682 -0.113219 -0.566061
v 0.436809 -0.113219 -0.321559
v 0.527652 -0.113219 -0.068231
v 0.496773 -0.113219 0.200728
v 0.351245 -0.113219 0.423703
v 0.124408 -0.113219 0.549612
v -0.131773 -0.113219 0.549612
v -0.358610 -0.113219 0.423703
v -0.504138 -0.113219 0.200728
v -0.535017 -0.113219 -0.068231
v -0.444174 -0.113219 -0.321559
v -0.252419 -0.113219 -0.501222
vt 1.000000 0.500000
vt 0.923077 0.500000
vt 0.923077 1.000000
vt 1.000000 1.000000
vt 0.846154 0.500000
vt 0.846154 1.000000
vt 0.769231 0.500000
vt 0.769231 1.000000
vt 0.692308 0.500000
vt 0.692308 1.000000
vt 0.615385 0.500000
vt 0.615385 1.000000
vt 0.538462 0.500000
vt 0.538462 1.000000
vt 0.461538 0.500000
vt 0.461538 1.000000
vt 0.384615 0.500000
vt 0.384615 1.000000
vt 0.307692 0.500000
vt 0.307692 1.000000
vt 0.230769 0.500000
vt 0.230769 1.000000
vt 0.153846 0.500000
vt 0.153846 1.000000
vt 0.000000 0.000000
vt 0.000000 0.000000
vt 0.000000 0.000000
vt 0.076923 0.500000
vt 0.076923 1.000000
vt 0.000000 0.500000
vt 0.000000 1.000000
vt 0.783546 0.113900
vt 0.783546 0.113900
vt 0.716455 0.113900
vt 0.716455 0.113900
vt 0.815141 0.374117
vt 0.861534 0.462509
vt 0.750000 0.490000
vt 0.750000 0.390173
vt 0.865360 0.329627
vt 0.947516 0.386336
vt 0.889151 0.266896
vt 0.988250 0.278929
vt 0.881064 0.200294
vt 0.974404 0.164895
vt 0.842952 0.145079
vt 0.909149 0.070357
vt 0.807436 0.016974
vt 0.692564 0.016974
vt 0.657048 0.145079
vt 0.590851 0.070357
vt 0.618936 0.200294
vt 0.525596 0.164895
vt 0.610849 0.266896
vt 0.511750 0.278929
vt 0.634640 0.329627
vt 0.552484 0.386336
vt 0.684859 0.374117
vt 0.638467 0.462510
vt 0.657048 0.145079
vt 0.750000 0.390173
vt 0.815141 0.374117
vt 0.618936 0.200294
vt 0.865360 0.329627
vt 0.610849 0.266896
vt 0.889151 0.266896
vt 0.634640 0.329627
vt 0.881064 0.200294
vt 0.684859 0.374117
vt 0.842952 0.145079
vt 0.250000 0.439056
vt 0.250000 0.490000
vt 0.361534 0.462509
vt 0.337859 0.417400
vt 0.447516 0.386336
vt 0.405590 0.357396
vt 0.488250 0.278929
vt 0.437677 0.272788
vt 0.474404 0.164895
vt 0.426770 0.182960
vt 0.409149 0.070357
vt 0.375367 0.108490
vt 0.307436 0.016974
vt 0.295244 0.066438
vt 0.192564 0.016974
vt 0.204756 0.066438
vt 0.090851 0.070357
vt 0.124633 0.108490
vt 0.025596 0.164895
vt 0.073230 0.182960
vt 0.011750 0.278929
vt 0.062323 0.272788
vt 0.052484 0.386336
vt 0.094410 0.357396
vt 0.138467 0.462510
vt 0.162142 0.417401
vt 0.000000 0.000000
vt 0.000000 0.000000
vt 0.000000 0.000000
vt 0.000000 0.000000
vt 0.000000 0.000000
vt 0.000000 0.000000
vt 0.000000 0.000000
vt 0.000000 0.000000
vt 0.000000 0.000000
vt 0.000000 0.000000
vt 0.000000 0.000000
vt 0.000000 0.000000
vt 0.000000 0.000000
vt 0.000000 0.000000
vt 0.000000 0.000000
vt 0.000000 0.000000
vt 0.000000 0.000000
vt 0.000000 0.000000
vt 0.000000 0.000000
vt 0.000000 0.000000
vt 0.000000 0.000000
vt 0.000000 0.000000
vt 0.000000 0.000000
vn 0.2522 0.0000 -0.9677
vn 0.6837 0.0000 -0.7297
vn 0.9413 0.0000 -0.3376
vn 0.9935 0.0000 0.1141
vn 0.8374 0.0000 0.5466
vn 0.4853 0.0000 0.8743
vn 0.0000 0.0000 1.0000
vn -0.4853 0.0000 0.8743
vn -0.8374 0.0000 0.5466
vn -0.9935 0.0000 0.1141
vn -0.9413 0.0000 -0.3376
vn 0.8655 -0.1218 0.4859
vn -0.6837 0.0000 -0.7297
vn -0.2522 0.0000 -0.9677
vn 0.0000 0.0000 -1.0000
vn 0.0000 1.0000 0.0000
vn 0.7258 0.0000 -0.6879
vn -0.4440 0.0000 0.8960
vn 0.9458 0.0000 -0.3247
vn -0.8720 0.0000 0.4895
vn 0.9982 0.0000 -0.0603
vn -0.9827 0.0000 0.1854
vn 0.9827 0.0000 0.1854
vn -0.9982 0.0000 -0.0603
vn 0.8720 0.0000 0.4895
vn -0.9458 0.0000 -0.3247
vn 0.4440 0.0000 0.8960
vn -0.7258 0.0000 -0.6879
vn 0.0000 -1.0000 0.0000
vn 0.9934 -0.0973 -0.0602
vn -0.8650 -0.1189 0.4875
vn 0.8650 -0.1189 0.4875
vn -0.9934 -0.0979 -0.0600
vn -0.4381 -0.1627 0.8841
vn -0.9776 -0.1017 0.1844
vn 0.4381 -0.1627 0.8841
vn -0.9776 -0.1001 0.1851
vn -0.4369 -0.1608 0.8850
vn 0.9776 -0.1001 0.1851
vn 0.4369 -0.1608 0.8850
vn -0.8655 -0.1218 0.4859
vn 0.9776 -0.1017 0.1844
vn 0.9934 -0.0979 -0.0600
vn -0.9402 -0.1092 -0.3228
vn 0.9402 -0.1092 -0.3228
vn -0.9400 -0.1068 -0.3240
vn 0.9400 -0.1068 -0.3240
vn -0.7186 -0.1406 -0.6810
vn 0.7186 -0.1406 -0.6810
vn -0.7176 -0.1377 -0.6827
vn 0.7176 -0.1377 -0.6827
vn 0.0000 -0.1738 -0.9848
vn -0.9934 -0.0973 -0.0602
usemtl None
s off
f 27/1/1 28/2/1 53/3/1 54/4/1
f 28/2/2 29/5/2 55/6/2 53/3/2
f 29/5/3 30/7/3 56/8/3 55/6/3
f 30/7/4 31/9/4 57/10/4 56/8/4
f 31/9/5 32/11/5 58/12/5 57/10/5
f 32/11/6 33/13/6 59/14/6 58/12/6
f 33/13/7 34/15/7 60/16/7 59/14/7
f 34/15/8 35/17/8 61/18/8 60/16/8
f 35/17/9 36/19/9 62/20/9 61/18/9
f 36/19/10 37/21/10 63/22/10 62/20/10
f 37/21/11 38/23/11 64/24/11 63/22/11
f 24/25/12 52/26/12 51/27/12
f 38/23/13 39/28/13 65/29/13 64/24/13
f 39/28/14 27/30/14 54/31/14 65/29/14
f 13/32/15 46/33/15 47/34/15 15/35/15
f 3/36/16 28/37/16 27/38/16 1/39/16
f 5/40/16 29/41/16 28/37/16 3/36/16
f 7/42/16 30/43/16 29/41/16 5/40/16
f 9/44/16 31/45/16 30/43/16 7/42/16
f 11/46/16 32/47/16 31/45/16 9/44/16
f 13/32/16 33/48/16 32/47/16 11/46/16
f 15/35/16 34/49/16 33/48/16 13/32/16
f 17/50/16 35/51/16 34/49/16 15/35/16
f 19/52/16 36/53/16 35/51/16 17/50/16
f 21/54/16 37/55/16 36/53/16 19/52/16
f 23/56/16 38/57/16 37/55/16 21/54/16
f 25/58/16 39/59/16 38/57/16 23/56/16
f 1/39/16 27/38/16 39/59/16 25/58/16
f 15/35/17 47/34/17 48/60/17 17/50/17
f 1/39/18 40/61/18 41/62/18 3/36/18
f 17/50/19 48/60/19 49/63/19 19/52/19
f 3/36/20 41/62/20 42/64/20 5/40/20
f 19/52/21 49/63/21 50/65/21 21/54/21
f 5/40/22 42/64/22 43/66/22 7/42/22
f 21/54/23 50/65/23 51/67/23 23/56/23
f 7/42/24 43/66/24 44/68/24 9/44/24
f 23/56/25 51/67/25 52/69/25 25/58/25
f 9/44/26 44/68/26 45/70/26 11/46/26
f 25/58/27 52/69/27 40/61/27 1/39/27
f 11/46/28 45/70/28 46/33/28 13/32/28
f 2/71/29 54/72/29 53/73/29 4/74/29
f 4/74/29 53/73/29 55/75/29 6/76/29
f 6/76/29 55/75/29 56/77/29 8/78/29
f 8/78/29 56/77/29 57/79/29 10/80/29
f 10/80/29 57/79/29 58/81/29 12/82/29
f 12/82/29 58/81/29 59/83/29 14/84/29
f 14/84/29 59/83/29 60/85/29 16/86/29
f 16/86/29 60/85/29 61/87/29 18/88/29
f 18/88/29 61/87/29 62/89/29 20/90/29
f 20/90/29 62/89/29 63/91/29 22/92/29
f 22/92/29 63/91/29 64/93/29 24/94/29
f 24/94/29 64/93/29 65/95/29 26/96/29
f 26/96/29 65/95/29 54/72/29 2/71/29
f 20/97/30 22/98/30 49/99/30
f 41/100/31 4/101/31 6/102/31
f 24/25/32 26/103/32 52/26/32
f 43/104/33 8/105/33 44/106/33
f 41/100/34 40/107/34 4/101/34
f 43/104/35 42/108/35 8/105/35
f 26/103/36 40/107/36 52/26/36
f 42/108/37 6/102/37 8/105/37
f 40/107/38 2/109/38 4/101/38
f 22/98/39 24/25/39 51/27/39
f 26/103/40 2/109/40 40/107/40
f 42/108/41 41/100/41 6/102/41
f 22/98/42 51/27/42 50/110/42
f 49/99/43 22/98/43 50/110/43
f 45/111/44 44/106/44 10/112/44
f 20/97/45 49/99/45 48/113/45
f 45/111/46 10/112/46 12/114/46
f 18/115/47 20/97/47 48/113/47
f 46/116/48 45/111/48 12/114/48
f 18/115/49 48/113/49 47/117/49
f 46/116/50 12/114/50 14/118/50
f 16/119/51 18/115/51 47/117/51
f 16/119/52 47/117/52 46/116/52
f 16/119/52 46/116/52 14/118/52
f 44/106/53 8/105/53 10/112/53
