# Blender v2.90.1 OBJ File: ''
# www.blender.org
mtllib S.mtl
o S_Cube.003
v 0.231590 -0.106019 -0.268959
v 0.231590 0.106019 -0.268959
v 0.272170 -0.106019 -0.549406
v 0.272170 0.106019 -0.549406
v 0.432954 -0.106019 -0.268959
v 0.432954 0.106019 -0.268959
v 0.458479 -0.106019 -0.549406
v 0.458479 0.106019 -0.549406
v 0.226214 -0.106019 -0.464810
v 0.184240 -0.106019 -0.365871
v 0.184240 0.106019 -0.365871
v 0.226214 0.106019 -0.464810
v -0.037163 -0.124463 -0.547208
v -0.037163 -0.124463 -0.380215
v -0.037163 0.124463 -0.380215
v -0.037163 0.124463 -0.547208
v 0.101521 -0.115241 -0.533606
v 0.101521 0.115241 -0.533606
v 0.101521 0.115241 -0.365798
v 0.101521 -0.115241 -0.365798
v -0.111910 -0.124463 -0.547208
v -0.111910 -0.124463 -0.380215
v -0.111910 0.124463 -0.380215
v -0.111910 0.124463 -0.547208
v -0.431550 -0.124463 -0.281210
v -0.132323 -0.124463 -0.281210
v -0.132323 0.124463 -0.281210
v -0.431550 0.124463 -0.281210
v -0.431550 -0.124463 -0.198249
v -0.132323 -0.124463 -0.198249
v -0.132323 0.124463 -0.198249
v -0.431550 0.124463 -0.198249
v -0.113547 -0.124463 0.179142
v -0.113547 -0.124463 -0.180844
v -0.113547 0.124463 -0.180844
v -0.113547 0.124463 0.179142
v 0.169698 -0.124463 0.179142
v 0.169699 -0.124463 -0.180844
v 0.169699 0.124463 -0.180844
v 0.169698 0.124463 0.179142
v 0.183737 -0.124463 0.240449
v 0.498545 -0.124463 0.240449
v 0.498545 0.124463 0.240449
v 0.183737 0.124463 0.240449
v 0.183737 -0.124463 0.322126
v 0.498545 -0.124463 0.322126
v 0.498545 0.124463 0.322126
v 0.183737 0.124463 0.322126
v 0.154350 -0.124463 0.346146
v 0.154350 -0.124463 0.558782
v 0.154350 0.124463 0.558782
v 0.154350 0.124463 0.346146
v -0.084586 -0.124463 0.346146
v -0.084586 -0.124463 0.558782
v -0.084586 0.124463 0.558782
v -0.084586 0.124463 0.346146
v -0.199734 -0.124463 0.194732
v -0.199734 -0.124463 0.557614
v -0.199734 0.124463 0.557614
v -0.199734 0.124463 0.194732
v -0.425732 -0.124463 0.194732
v -0.425732 -0.124463 0.557614
v -0.425732 0.124463 0.557614
v -0.425732 0.124463 0.194732
v -0.179203 -0.124463 0.283621
v -0.179203 0.124463 0.283621
v -0.179203 0.124463 0.438078
v -0.179203 -0.124463 0.438078
v -0.103665 0.124463 0.389599
v -0.103665 -0.124463 0.524819
v -0.103665 -0.124463 0.389599
v -0.103665 0.124463 0.524819
v -0.356735 -0.124463 0.018125
v -0.356735 0.124463 0.018125
v -0.122935 0.124463 -0.189547
v -0.122935 -0.124463 -0.189547
v 0.176718 0.124463 0.209796
v 0.441078 0.124463 -0.036766
v 0.441078 -0.124463 -0.036766
v 0.176718 -0.124463 0.209796
v -0.122116 0.124463 -0.330713
v -0.122116 -0.124463 -0.330713
v -0.301907 0.124463 -0.477245
v -0.301907 -0.124463 -0.477245
v 0.305388 0.124463 -0.148335
v 0.173208 -0.124463 0.194469
v 0.173208 0.124463 0.194469
v 0.305388 -0.124463 -0.148335
v 0.169044 0.124463 0.334136
v 0.390752 0.124463 0.487112
v 0.390752 -0.124463 0.487112
v 0.169044 -0.124463 0.334136
vt 0.875000 0.750000
vt 0.875000 0.500000
vt 0.875000 0.500000
vt 0.875000 0.750000
vt 0.375000 0.250000
vt 0.625000 0.250000
vt 0.625000 0.500000
vt 0.375000 0.500000
vt 0.625000 0.750000
vt 0.375000 0.750000
vt 0.625000 1.000000
vt 0.375000 1.000000
vt 0.125000 0.500000
vt 0.125000 0.750000
vt 0.625000 0.250000
vt 0.375000 0.250000
vt 0.375000 0.250000
vt 0.625000 0.250000
vt 0.125000 0.750000
vt 0.125000 0.500000
vt 0.375000 0.250000
vt 0.625000 0.250000
vt 0.625000 1.000000
vt 0.375000 1.000000
vt 0.875000 0.750000
vt 0.875000 0.500000
vt 0.875000 0.500000
vt 0.875000 0.750000
vt 0.375000 1.000000
vt 0.625000 1.000000
vt 0.625000 1.000000
vt 0.375000 1.000000
vt 0.875000 0.750000
vt 0.875000 0.500000
vt 0.125000 0.500000
vt 0.125000 0.750000
vt 0.125000 0.750000
vt 0.125000 0.500000
vt 0.375000 1.000000
vt 0.625000 1.000000
vt 0.625000 1.000000
vt 0.375000 1.000000
vt 0.125000 0.750000
vt 0.125000 0.500000
vt 0.375000 0.250000
vt 0.625000 0.250000
vt 0.625000 1.000000
vt 0.375000 1.000000
vt 0.875000 0.750000
vt 0.875000 0.500000
vt 0.875000 0.500000
vt 0.875000 0.750000
vt 0.875000 0.750000
vt 0.875000 0.500000
vt 0.125000 0.500000
vt 0.125000 0.750000
vt 0.125000 0.750000
vt 0.125000 0.500000
vt 0.625000 0.250000
vt 0.375000 0.250000
vt 0.375000 0.250000
vt 0.625000 0.250000
vt 0.625000 0.250000
vt 0.375000 0.250000
vt 0.375000 0.250000
vt 0.625000 0.250000
vt 0.125000 0.750000
vt 0.125000 0.500000
vt 0.375000 0.250000
vt 0.625000 0.250000
vt 0.625000 1.000000
vt 0.375000 1.000000
vt 0.875000 0.750000
vt 0.875000 0.500000
vt 0.875000 0.500000
vt 0.875000 0.750000
vt 0.375000 1.000000
vt 0.625000 1.000000
vt 0.625000 1.000000
vt 0.375000 1.000000
vt 0.875000 0.750000
vt 0.875000 0.500000
vt 0.125000 0.500000
vt 0.125000 0.750000
vt 0.125000 0.750000
vt 0.125000 0.500000
vt 0.875000 0.750000
vt 0.875000 0.500000
vt 0.875000 0.500000
vt 0.875000 0.750000
vt 0.125000 0.750000
vt 0.125000 0.500000
vt 0.375000 0.250000
vt 0.625000 0.250000
vt 0.625000 1.000000
vt 0.375000 1.000000
vt 0.625000 0.250000
vt 0.375000 0.250000
vt 0.375000 0.250000
vt 0.625000 0.250000
vt 0.125000 0.500000
vt 0.125000 0.750000
vt 0.125000 0.750000
vt 0.125000 0.500000
vt 0.625000 0.250000
vt 0.375000 0.250000
vt 0.375000 1.000000
vt 0.625000 1.000000
vt 0.625000 1.000000
vt 0.375000 1.000000
vt 0.875000 0.750000
vt 0.875000 0.500000
vt 0.875000 0.500000
vt 0.875000 0.750000
vt 0.625000 1.000000
vt 0.375000 1.000000
vt 0.875000 0.500000
vt 0.875000 0.750000
vt 0.125000 0.750000
vt 0.125000 0.500000
vt 0.125000 0.500000
vt 0.125000 0.750000
vt 0.125000 0.750000
vt 0.125000 0.500000
vt 0.125000 0.500000
vt 0.125000 0.750000
vt 0.625000 0.250000
vt 0.375000 0.250000
vt 0.375000 0.250000
vt 0.625000 0.250000
vt 0.375000 1.000000
vt 0.625000 1.000000
vt 0.625000 1.000000
vt 0.375000 1.000000
vt 0.625000 0.250000
vt 0.375000 0.250000
vt 0.375000 0.250000
vt 0.625000 0.250000
vt 0.375000 0.250000
vt 0.625000 0.250000
vt 0.625000 1.000000
vt 0.375000 1.000000
vt 0.875000 0.500000
vt 0.875000 0.750000
vt 0.875000 0.750000
vt 0.875000 0.500000
vt 0.875000 0.500000
vt 0.875000 0.750000
vt 0.375000 1.000000
vt 0.625000 1.000000
vt 0.625000 1.000000
vt 0.375000 1.000000
vt 0.875000 0.750000
vt 0.875000 0.500000
vt 0.125000 0.500000
vt 0.125000 0.750000
vt 0.125000 0.750000
vt 0.125000 0.500000
vt 0.375000 0.000000
vt 0.625000 0.000000
vt 0.625000 0.250000
vt 0.375000 0.250000
vt 0.125000 0.750000
vt 0.125000 0.500000
vt 0.625000 1.000000
vt 0.375000 1.000000
vt 0.125000 0.500000
vt 0.125000 0.750000
vt 0.875000 0.750000
vt 0.875000 0.500000
vt 0.375000 1.000000
vt 0.625000 1.000000
vt 0.625000 0.250000
vt 0.375000 0.250000
vt 0.375000 1.000000
vt 0.625000 1.000000
vt 0.625000 0.250000
vt 0.375000 0.250000
vt 0.125000 0.500000
vt 0.125000 0.750000
vt 0.875000 0.750000
vt 0.875000 0.500000
vn 0.0000 1.0000 0.0000
vn 0.0000 0.0000 -1.0000
vn 0.9959 0.0000 0.0906
vn 0.0000 0.0000 1.0000
vn 0.0000 -1.0000 0.0000
vn 0.0976 0.0000 -0.9952
vn -0.8787 0.0000 -0.4774
vn -0.8985 0.0000 0.4390
vn -0.1034 0.0000 0.9946
vn 0.0663 0.9978 0.0000
vn 0.0663 -0.9978 0.0000
vn 0.0842 -0.9964 0.0133
vn 0.0842 0.9964 0.0133
vn 0.0009 0.0000 1.0000
vn 0.4831 0.0000 -0.8756
vn 0.9794 0.0000 0.2019
vn -0.8341 0.0000 -0.5516
vn -0.5521 0.0000 0.8338
vn -1.0000 0.0000 0.0000
vn 1.0000 0.0000 0.0000
vn 0.6798 0.0000 -0.7334
vn -0.9748 0.0000 0.2232
vn 0.9792 0.0000 -0.2030
vn -0.6328 0.0000 -0.7743
vn 0.2901 0.0000 0.9570
vn 0.9743 0.0000 -0.2250
vn 0.9856 0.0000 0.1693
vn -0.7541 0.0000 0.6567
vn 0.8143 0.0000 -0.5804
vn -0.9156 0.0000 -0.4020
vn -0.8719 0.0000 0.4898
vn -0.9451 0.0000 0.3268
vn 0.6351 0.0000 -0.7724
vn -0.3456 0.0000 -0.9384
vn 0.2330 0.0000 -0.9725
vn 0.8372 0.0000 0.5470
usemtl None
s off
f 2/1/1 4/2/1 12/3/1 11/4/1
f 3/5/2 4/6/2 8/7/2 7/8/2
f 7/8/3 8/7/3 6/9/3 5/10/3
f 5/10/4 6/9/4 2/11/4 1/12/4
f 3/13/5 7/8/5 5/10/5 1/14/5
f 8/7/1 4/2/1 2/1/1 6/9/1
f 18/15/6 17/16/6 13/17/6 16/18/6
f 3/13/5 1/14/5 10/19/5 9/20/5
f 4/6/7 3/5/7 9/21/7 12/22/7
f 1/12/8 2/11/8 11/23/8 10/24/8
f 15/25/1 16/26/1 24/27/1 23/28/1
f 20/29/9 19/30/9 15/31/9 14/32/9
f 19/33/10 18/34/10 16/26/10 15/25/10
f 17/35/11 20/36/11 14/37/11 13/38/11
f 9/20/12 10/19/12 20/36/12 17/35/12
f 11/4/13 12/3/13 18/34/13 19/33/13
f 10/24/14 11/23/14 19/30/14 20/29/14
f 12/22/15 9/21/15 17/16/15 18/15/15
f 82/39/16 81/40/16 27/41/16 26/42/16
f 13/38/5 14/37/5 22/43/5 21/44/5
f 16/18/2 13/17/2 21/45/2 24/46/2
f 14/32/4 15/31/4 23/47/4 22/48/4
f 27/49/1 28/50/1 32/51/1 31/52/1
f 81/53/1 83/54/1 28/50/1 27/49/1
f 84/55/5 82/56/5 26/57/5 25/58/5
f 83/59/17 84/60/17 25/61/17 28/62/17
f 74/63/18 73/64/18 33/65/18 36/66/18
f 25/58/5 26/57/5 30/67/5 29/68/5
f 28/62/19 25/61/19 29/69/19 32/70/19
f 26/42/20 27/41/20 31/71/20 30/72/20
f 35/73/1 36/74/1 40/75/1 39/76/1
f 76/77/21 75/78/21 35/79/21 34/80/21
f 75/81/1 74/82/1 36/74/1 35/73/1
f 73/83/5 76/84/5 34/85/5 33/86/5
f 78/87/1 77/88/1 44/89/1 43/90/1
f 33/86/5 34/85/5 38/91/5 37/92/5
f 36/66/4 33/65/4 37/93/4 40/94/4
f 34/80/2 35/79/2 39/95/2 38/96/2
f 44/97/19 41/98/19 45/99/19 48/100/19
f 80/101/5 79/102/5 42/103/5 41/104/5
f 77/105/22 80/106/22 41/98/22 44/97/22
f 79/107/23 78/108/23 43/109/23 42/110/23
f 90/111/1 89/112/1 52/113/1 51/114/1
f 42/110/20 43/109/20 47/115/20 46/116/20
f 43/90/1 44/89/1 48/117/1 47/118/1
f 41/104/5 42/103/5 46/119/5 45/120/5
f 49/121/5 50/122/5 54/123/5 53/124/5
f 92/125/5 91/126/5 50/122/5 49/121/5
f 89/127/24 92/128/24 49/129/24 52/130/24
f 91/131/25 90/132/25 51/133/25 50/134/25
f 66/135/26 65/136/26 57/137/26 60/138/26
f 52/130/2 49/129/2 53/139/2 56/140/2
f 50/134/4 51/133/4 55/141/4 54/142/4
f 51/114/1 52/113/1 56/143/1 55/144/1
f 59/145/1 60/146/1 64/147/1 63/148/1
f 68/149/27 67/150/27 59/151/27 58/152/27
f 67/153/1 66/154/1 60/146/1 59/145/1
f 65/155/5 68/156/5 58/157/5 57/158/5
f 62/159/19 63/160/19 64/161/19 61/162/19
f 57/158/5 58/157/5 62/163/5 61/164/5
f 60/138/2 57/137/2 61/162/2 64/161/2
f 58/152/4 59/151/4 63/165/4 62/166/4
f 71/167/5 70/168/5 68/156/5 65/155/5
f 72/169/1 69/170/1 66/154/1 67/153/1
f 70/171/28 72/172/28 67/150/28 68/149/28
f 69/173/29 71/174/29 65/136/29 66/135/29
f 56/140/30 53/139/30 71/174/30 69/173/30
f 54/142/31 55/141/31 72/172/31 70/171/31
f 55/144/1 56/143/1 69/170/1 72/169/1
f 53/124/5 54/123/5 70/168/5 71/167/5
f 29/68/5 30/67/5 76/84/5 73/83/5
f 31/52/1 32/51/1 74/82/1 75/81/1
f 30/72/21 31/71/21 75/78/21 76/77/21
f 32/70/32 29/69/32 73/64/32 74/63/32
f 88/175/33 85/176/33 78/108/33 79/107/33
f 87/177/22 86/178/22 80/106/22 77/105/22
f 86/179/5 88/180/5 79/102/5 80/101/5
f 85/181/1 87/182/1 77/88/1 78/87/1
f 24/46/34 21/45/34 84/60/34 83/59/34
f 21/44/5 22/43/5 82/56/5 84/55/5
f 23/28/1 24/27/1 83/54/1 81/53/1
f 22/48/16 23/47/16 81/40/16 82/39/16
f 39/76/1 40/75/1 87/182/1 85/181/1
f 37/92/5 38/91/5 88/180/5 86/179/5
f 40/94/22 37/93/22 86/178/22 87/177/22
f 38/96/35 39/95/35 85/176/35 88/175/35
f 46/116/36 47/115/36 90/132/36 91/131/36
f 48/100/24 45/99/24 92/128/24 89/127/24
f 45/120/5 46/119/5 91/126/5 92/125/5
f 47/118/1 48/117/1 89/112/1 90/111/1
