# Blender v2.83.1 OBJ File: 'cowboy_hat_01.blend'
# www.blender.org
mtllib cowboy_hat_01.mtl
o Cube
v 0.902325 -0.593367 -0.501058
v 0.902325 -0.655360 -0.501058
v 0.902325 -0.593367 0.501058
v 0.902325 -0.655360 0.501058
v -0.902325 -0.593367 -0.501058
v -0.902325 -0.655360 -0.501058
v -0.902325 -0.593367 0.501058
v -0.902325 -0.655360 0.501058
v -0.411701 -1.000000 -1.000000
v -0.411701 -0.931297 1.000000
v -0.411701 -1.000000 1.000000
v -0.411701 -0.931297 -1.000000
v 0.425763 -1.000000 1.000000
v 0.425763 -0.931297 -1.000000
v 0.425763 -1.000000 -1.000000
v 0.425763 -0.931297 1.000000
v 0.712881 -0.885056 0.807161
v 0.712881 -0.816353 -0.807161
v 0.712881 -0.885056 -0.807161
v 0.712881 -0.816353 0.807161
v -0.705851 -0.885056 -0.807161
v -0.705851 -0.816353 0.807161
v -0.705851 -0.885056 0.807161
v -0.705851 -0.816353 -0.807161
v 0.000000 -0.941167 -0.479620
v 0.000000 -0.565878 -0.479620
v 0.415363 -0.941167 -0.239810
v 0.415363 -0.565878 -0.239810
v 0.415363 -0.941167 0.239810
v 0.415363 -0.565878 0.239810
v -0.000000 -0.941167 0.479620
v -0.000000 -0.565878 0.479620
v -0.415363 -0.941167 0.239810
v -0.415363 -0.565878 0.239810
v -0.415363 -0.941167 -0.239810
v -0.415363 -0.565878 -0.239810
v 0.309245 -0.410161 -0.178543
v -0.000000 -0.410161 -0.357086
v 0.309245 -0.410161 0.178543
v -0.000000 -0.410161 0.357086
v -0.309245 -0.410161 0.178543
v -0.309245 -0.410161 -0.178543
v 0.188935 -0.268033 -0.109082
v -0.000000 -0.268033 -0.218164
v 0.188935 -0.268033 0.109082
v -0.000000 -0.268033 0.218164
v -0.188936 -0.268033 0.109082
v -0.188936 -0.268033 -0.109082
vt 0.838231 0.500000
vt 0.875000 0.500000
vt 0.875000 0.750000
vt 0.838231 0.750000
vt 0.375000 0.963231
vt 0.625000 0.963231
vt 0.625000 1.000000
vt 0.375000 1.000000
vt 0.375000 0.000000
vt 0.625000 0.000000
vt 0.625000 0.250000
vt 0.375000 0.250000
vt 0.339110 0.500000
vt 0.375000 0.500000
vt 0.375000 0.750000
vt 0.339110 0.750000
vt 0.625000 0.500000
vt 0.625000 0.750000
vt 0.375000 0.464110
vt 0.625000 0.464110
vt 0.375000 0.286769
vt 0.625000 0.286769
vt 0.625000 0.323537
vt 0.375000 0.323537
vt 0.161769 0.500000
vt 0.198537 0.500000
vt 0.198537 0.750000
vt 0.161769 0.750000
vt 0.375000 0.821780
vt 0.625000 0.821780
vt 0.625000 0.926463
vt 0.375000 0.926463
vt 0.696780 0.500000
vt 0.801463 0.500000
vt 0.801463 0.750000
vt 0.696780 0.750000
vt 0.660890 0.500000
vt 0.660890 0.750000
vt 0.375000 0.785890
vt 0.625000 0.785890
vt 0.625000 0.428220
vt 0.375000 0.428220
vt 0.303220 0.500000
vt 0.303220 0.750000
vt 0.125000 0.500000
vt 0.125000 0.750000
vt 1.000000 0.500000
vt 1.000000 1.000000
vt 0.833333 1.000000
vt 0.833333 0.500000
vt 0.666667 1.000000
vt 0.666667 0.500000
vt 0.500000 1.000000
vt 0.500000 0.500000
vt 0.333333 1.000000
vt 0.333333 0.500000
vt 0.833333 1.000000
vt 0.666667 1.000000
vt 0.166667 1.000000
vt 0.166667 0.500000
vt -0.000000 1.000000
vt -0.000000 0.500000
vt 0.750000 0.490000
vt 0.957846 0.370000
vt 0.957846 0.130000
vt 0.750000 0.010000
vt 0.542154 0.130000
vt 0.542154 0.370000
vt 0.500000 1.000000
vt 0.666667 1.000000
vt 0.500000 1.000000
vt 0.333333 1.000000
vt 0.166667 1.000000
vt 1.000000 1.000000
vt -0.000000 1.000000
vt 0.457846 0.370000
vt 0.250000 0.490000
vt 0.042154 0.370000
vt 0.042154 0.130000
vt 0.250000 0.010000
vt 0.457846 0.130000
vt 1.000000 1.000000
vt 0.833333 1.000000
vt 0.166667 1.000000
vt -0.000000 1.000000
vt 0.333333 1.000000
vn 0.7503 0.6611 0.0000
vn -0.8416 0.0000 0.5402
vn -1.0000 0.0000 0.0000
vn 0.7715 -0.6363 0.0000
vn 1.0000 0.0000 0.0000
vn 0.8503 0.0000 -0.5263
vn -0.5483 0.0000 -0.8363
vn -0.3640 -0.9314 0.0000
vn 0.0000 0.0000 1.0000
vn 0.0000 1.0000 0.0000
vn -0.3717 0.9284 0.0000
vn 0.5576 0.0000 0.8301
vn 0.0000 0.0000 -1.0000
vn 0.0000 -1.0000 0.0000
vn 0.8503 0.0000 0.5263
vn -0.7621 0.6475 0.0000
vn 0.5576 0.0000 -0.8301
vn 0.3717 -0.9284 0.0000
vn -0.7599 -0.6500 0.0000
vn -0.8416 0.0000 -0.5402
vn -0.5483 0.0000 0.8363
vn 0.3640 0.9314 0.0000
vn 0.5000 0.0000 -0.8660
vn 0.5000 0.0000 0.8660
vn -0.5000 0.0000 0.8660
vn 0.8264 0.5631 0.0000
vn -0.5000 0.0000 -0.8660
vn 0.3816 0.6461 0.6610
vn -0.8264 0.5631 0.0000
vn 0.4132 0.5631 -0.7156
vn 0.4132 0.5631 0.7156
vn -0.4132 0.5631 -0.7156
vn -0.4132 0.5631 0.7156
vn 0.3816 0.6461 -0.6610
vn -0.3816 0.6461 -0.6610
vn -0.3816 0.6461 0.6610
vn 0.7633 0.6461 0.0000
vn -0.7633 0.6461 0.0000
usemtl Material
s off
f 24/1/1 5/2/1 7/3/1 22/4/1
f 23/5/2 22/6/2 7/7/2 8/8/2
f 8/9/3 7/10/3 5/11/3 6/12/3
f 19/13/4 2/14/4 4/15/4 17/16/4
f 2/14/5 1/17/5 3/18/5 4/15/5
f 19/19/6 18/20/6 1/17/6 2/14/6
f 21/21/7 24/22/7 12/23/7 9/24/7
f 21/25/8 9/26/8 11/27/8 23/28/8
f 13/29/9 16/30/9 10/31/9 11/32/9
f 14/33/10 12/34/10 10/35/10 16/36/10
f 18/37/11 14/33/11 16/36/11 20/38/11
f 17/39/12 20/40/12 16/30/12 13/29/12
f 9/24/13 12/23/13 14/41/13 15/42/13
f 9/26/14 15/43/14 13/44/14 11/27/14
f 4/15/15 3/18/15 20/40/15 17/39/15
f 1/17/16 18/37/16 20/38/16 3/18/16
f 15/42/17 14/41/17 18/20/17 19/19/17
f 15/43/18 19/13/18 17/16/18 13/44/18
f 6/45/19 21/25/19 23/28/19 8/46/19
f 6/12/20 5/11/20 24/22/20 21/21/20
f 11/32/21 10/31/21 22/6/21 23/5/21
f 12/34/22 24/1/22 22/4/22 10/35/22
f 25/47/23 26/48/23 28/49/23 27/50/23
f 27/50/5 28/49/5 30/51/5 29/52/5
f 29/52/24 30/51/24 32/53/24 31/54/24
f 31/54/25 32/53/25 34/55/25 33/56/25
f 30/51/26 28/49/26 37/57/26 39/58/26
f 33/56/3 34/55/3 36/59/3 35/60/3
f 35/60/27 36/59/27 26/61/27 25/62/27
f 25/63/14 27/64/14 29/65/14 31/66/14 33/67/14 35/68/14
f 40/69/28 39/58/28 45/70/28 46/71/28
f 36/59/29 34/55/29 41/72/29 42/73/29
f 28/49/30 26/48/30 38/74/30 37/57/30
f 32/53/31 30/51/31 39/58/31 40/69/31
f 26/61/32 36/59/32 42/73/32 38/75/32
f 34/55/33 32/53/33 40/69/33 41/72/33
f 43/76/10 44/77/10 48/78/10 47/79/10 46/80/10 45/81/10
f 37/57/34 38/74/34 44/82/34 43/83/34
f 38/75/35 42/73/35 48/84/35 44/85/35
f 41/72/36 40/69/36 46/71/36 47/86/36
f 39/58/37 37/57/37 43/83/37 45/70/37
f 42/73/38 41/72/38 47/86/38 48/84/38
