# Blender v2.83.1 OBJ File: 'mirror_stand.blend'
# www.blender.org
mtllib mirror_stand.mtl
o Cube
v 1.063635 3.093310 -1.000000
v 1.063635 -3.093310 -0.829456
v 0.841580 2.871256 -0.553737
v 0.841580 -2.871256 -0.553737
v -1.063635 3.093310 -1.000000
v -1.063635 -3.093310 -1.000000
v -0.841580 2.871256 -0.553737
v -0.841580 -2.871256 -0.553737
v -1.063635 -3.093310 -0.553737
v -1.063635 3.093310 -0.553737
v 1.063635 3.093310 -0.553737
v 1.063635 -3.093310 -0.383193
v -0.841580 -2.871256 -1.090661
v -0.841580 2.871256 -1.090661
v 0.841580 2.871256 -1.090661
v 0.841580 -2.871256 -1.090661
v -0.841580 -2.871256 -1.255571
v -0.841580 2.871256 -1.255571
v 0.841580 2.871256 -1.255571
v 0.841580 -2.871256 -1.255571
v 1.063635 2.213867 -1.000000
v -1.063635 2.213867 -0.553737
v 1.063635 2.213867 -0.553737
v -1.063635 2.213867 -1.000000
v -0.841580 2.054943 -0.553737
v 0.841580 2.054943 -0.553737
v -0.841580 2.054943 -1.090661
v 0.841580 2.054943 -1.090661
v -0.841580 2.054943 -1.255571
v 0.841580 2.054943 -1.255571
v -1.063635 2.682834 -0.553737
v -0.841580 2.490245 -0.553737
v -0.841580 2.490245 -1.090661
v -0.841580 2.490245 -1.255571
v 1.063635 2.682834 -1.000000
v 1.063635 2.682834 -0.553737
v -1.063635 2.682834 -1.000000
v 0.841580 2.490245 -0.553737
v 0.841580 2.490245 -1.090661
v 0.841580 2.490245 -1.255571
v -1.063635 -3.093310 -0.829456
v -1.063635 3.093310 -0.553737
v -1.063635 -3.093310 -0.383193
v -1.063635 3.093310 -1.000000
v -0.841580 2.871256 -0.553737
v -0.841580 -2.871256 -0.553737
v -0.841580 2.871256 -1.090661
v -0.841580 -2.871256 -1.090661
v -0.841580 2.871256 -1.255571
v -0.841580 -2.871256 -1.255571
v -0.841580 2.054943 -1.255571
v -1.063635 2.213867 -1.000000
v -0.841580 2.490245 -1.255571
v -1.063635 2.682834 -1.000000
v 0.848033 -3.093310 -0.383193
v 0.848033 3.093310 -1.000000
v 0.670990 -2.871256 -0.553737
v 0.670990 -2.871256 -1.090661
v 0.670990 -2.871256 -1.255571
v 0.848033 2.213867 -1.000000
v 0.848033 2.682834 -1.000000
v 0.848033 -3.093310 -0.829456
v 0.848033 3.093310 -0.553737
v 0.670990 2.871256 -0.553737
v 0.670990 2.871256 -1.090661
v 0.670990 2.871256 -1.255571
v 0.670990 2.054943 -1.255571
v 0.670990 2.490245 -1.255571
v -0.848729 -3.093310 -0.829456
v -0.848729 3.093310 -0.553737
v -0.671541 2.871256 -0.553737
v -0.671541 2.871256 -1.090661
v -0.671541 2.871256 -1.255571
v -0.671541 2.054943 -1.255571
v -0.671541 2.490245 -1.255571
v -0.848729 -3.093310 -0.383193
v -0.848729 3.093310 -1.000000
v -0.671541 -2.871256 -0.553737
v -0.671541 -2.871256 -1.090661
v -0.671541 -2.871256 -1.255571
v -0.848729 2.213867 -1.000000
v -0.848729 2.682834 -1.000000
v 1.063635 -3.130676 -3.108688
v 1.063635 -3.130883 -2.639721
v 0.848033 -3.130883 -2.639721
v 0.848033 -3.130676 -3.108688
v -1.063635 -3.130676 -3.108688
v -1.063635 -3.130883 -2.639721
v -0.848729 -3.130883 -2.639721
v -0.848729 -3.130676 -3.108688
vt 0.875000 0.500000
vt 0.875000 0.500000
vt 0.875000 0.750000
vt 0.875000 0.750000
vt 0.383973 0.796144
vt 0.383973 0.776096
vt 0.383973 0.776096
vt 0.383973 0.796144
vt 0.608413 0.000000
vt 0.625000 0.000000
vt 0.625000 0.250000
vt 0.608413 0.250000
vt 0.349662 0.500000
vt 0.375000 0.500000
vt 0.375000 0.750000
vt 0.349662 0.750000
vt 0.608413 0.500000
vt 0.625000 0.500000
vt 0.625000 0.750000
vt 0.608413 0.750000
vt 0.608413 0.474662
vt 0.625000 0.474662
vt 0.600630 0.973904
vt 0.616027 0.973904
vt 0.625000 1.000000
vt 0.608413 1.000000
vt 0.583040 0.776096
vt 0.589462 0.750000
vt 0.616027 0.796144
vt 0.616027 0.776096
vt 0.625000 0.775338
vt 0.383973 0.973904
vt 0.383973 0.973904
vt 0.375000 1.000000
vt 0.375000 1.000000
vt 0.616027 0.973904
vt 0.616027 0.973904
vt 0.616027 0.973904
vt 0.616027 0.973904
vt 0.600630 0.776096
vt 0.616027 0.776096
vt 0.600630 0.776096
vt 0.616027 0.973904
vt 0.583040 0.973904
vt 0.383973 0.973904
vt 0.583040 0.973904
vt 0.600630 0.973904
vt 0.600630 0.973904
vt 0.383973 0.973904
vt 0.583040 0.973904
vt 0.383973 0.776096
vt 0.383973 0.796144
vt 0.616027 0.776096
vt 0.600630 0.776096
vt 0.583040 0.776096
vt 0.583040 0.776096
vt 0.600630 0.973904
vt 0.383973 0.973904
vt 0.583040 0.973904
vt 0.589462 1.000000
vt 0.375000 0.474662
vt 0.589462 0.474662
vt 0.589462 0.500000
vt 0.375000 0.000000
vt 0.589462 0.000000
vt 0.589462 0.250000
vt 0.375000 0.250000
vt 0.608413 0.250000
vt 0.608413 0.275256
vt 0.608413 0.275256
vt 0.608413 0.250000
vt 0.589462 0.250000
vt 0.583040 0.953920
vt 0.600630 0.953920
vt 0.375000 0.250000
vt 0.383973 0.953920
vt 0.383973 0.973904
vt 0.616027 0.953920
vt 0.616027 0.953920
vt 0.616027 0.953920
vt 0.383973 0.953921
vt 0.375000 0.974744
vt 0.625000 1.000000
vt 0.625000 0.250000
vt 0.125000 0.500000
vt 0.125000 0.500000
vt 0.125000 0.750000
vt 0.125000 0.750000
vt 0.849744 0.500000
vt 0.849744 0.750000
vt 0.650338 0.500000
vt 0.650338 0.750000
vt 0.375000 0.775338
vt 0.616027 0.796144
vt 0.616027 0.796144
vt 0.600630 0.796144
vt 0.583040 0.796144
vt 0.589462 0.275256
vt 0.375000 0.275256
vt 0.383973 0.953920
vt 0.625000 0.974744
vt 0.625000 0.275256
vt 0.150256 0.500000
vt 0.150256 0.750000
vt 0.608413 0.474662
vt 0.589462 0.474662
vt 0.608413 0.500000
vt 0.589462 0.500000
vt 0.589462 0.250000
vt 0.589462 0.275256
vn 0.0000 0.0000 1.0000
vn 0.0000 1.0000 0.0000
vn -1.0000 0.0000 0.0000
vn 0.0000 -1.0000 0.0000
vn 1.0000 0.0000 0.0000
vn 0.0000 0.0000 -1.0000
vn -0.3565 0.0156 0.9342
vn -0.7071 0.7071 0.0000
vn 0.0000 -0.0321 -0.9995
vn 0.0000 0.3410 -0.9401
vn 0.0000 0.6091 0.7931
vn 0.0000 -1.0000 -0.0004
vn 0.0000 -0.2933 0.9560
usemtl Material
s off
f 44/1/1 5/2/1 10/3/1 42/4/1
f 57/5/2 4/6/2 16/7/2 58/8/2
f 31/9/3 10/10/3 5/11/3 37/12/3
f 62/13/4 2/14/4 12/15/4 55/16/4
f 35/17/5 1/18/5 11/19/5 36/20/5
f 61/21/6 56/22/6 1/18/6 35/17/6
f 32/23/1 7/24/1 10/25/1 31/26/1
f 26/27/7 4/6/7 12/15/7 23/28/7
f 64/29/1 3/30/1 11/19/1 63/31/1
f 46/32/8 8/33/8 9/34/8 43/35/8
f 47/36/1 14/37/1 18/38/1 49/39/1
f 38/40/3 3/30/3 15/41/3 39/42/3
f 45/43/1 7/24/1 14/37/1 47/36/1
f 25/44/5 8/33/5 13/45/5 27/46/5
f 53/47/1 49/39/1 18/38/1 34/48/1
f 27/46/5 13/45/5 17/49/5 29/50/5
f 58/8/2 16/7/2 20/51/2 59/52/2
f 39/42/3 15/41/3 19/53/3 40/54/3
f 16/7/3 28/55/3 30/56/3 20/51/3
f 33/57/5 27/46/5 29/50/5 34/48/5
f 50/58/1 51/59/1 29/50/1 17/49/1
f 32/23/5 25/44/5 27/46/5 33/57/5
f 4/6/3 26/27/3 28/55/3 16/7/3
f 38/40/1 26/27/1 23/28/1 36/20/1
f 8/33/1 25/44/1 22/60/1 9/34/1
f 62/61/9 60/62/9 21/63/9 2/14/9
f 2/14/5 21/63/5 23/28/5 12/15/5
f 9/64/3 22/65/3 24/66/3 6/67/3
f 3/30/1 38/40/1 36/20/1 11/19/1
f 7/24/5 32/23/5 33/57/5 14/37/5
f 14/37/5 33/57/5 34/48/5 18/38/5
f 28/55/3 39/42/3 40/54/3 30/56/3
f 51/59/1 53/47/1 34/48/1 29/50/1
f 26/27/3 38/40/3 39/42/3 28/55/3
f 25/44/1 32/23/1 31/26/1 22/60/1
f 54/68/10 82/69/10 90/70/10 87/71/10
f 21/63/5 35/17/5 36/20/5 23/28/5
f 22/65/3 31/9/3 37/12/3 24/66/3
f 24/66/1 37/12/1 54/68/1 52/72/1
f 74/73/1 75/74/1 53/47/1 51/59/1
f 6/67/5 24/66/5 52/72/5 41/75/5
f 80/76/1 74/73/1 51/59/1 50/58/1
f 13/45/1 48/77/1 50/58/1 17/49/1
f 75/74/1 73/78/1 49/39/1 53/47/1
f 71/79/4 45/43/4 47/36/4 72/80/4
f 72/80/4 47/36/4 49/39/4 73/78/4
f 78/81/11 46/32/11 43/35/11 76/82/11
f 7/24/1 45/43/1 42/83/1 10/25/1
f 37/12/1 5/11/1 44/84/1 54/68/1
f 6/85/2 41/86/2 43/87/2 9/88/2
f 8/33/1 46/32/1 48/77/1 13/45/1
f 77/89/2 44/1/2 42/4/2 70/90/2
f 1/18/2 56/91/2 63/92/2 11/19/2
f 4/6/11 57/5/11 55/93/11 12/15/11
f 15/41/4 65/94/4 66/95/4 19/53/4
f 3/30/4 64/29/4 65/94/4 15/41/4
f 40/54/1 19/53/1 66/95/1 68/96/1
f 20/51/1 30/56/1 67/97/1 59/52/1
f 30/56/1 40/54/1 68/96/1 67/97/1
f 81/98/6 82/69/6 61/21/6 60/62/6
f 69/99/9 81/98/9 60/62/9 62/61/9
f 79/100/2 58/8/2 59/52/2 80/76/2
f 71/79/1 64/29/1 63/31/1 70/101/1
f 82/69/6 77/102/6 56/22/6 61/21/6
f 69/103/4 62/13/4 55/16/4 76/104/4
f 78/81/2 57/5/2 58/8/2 79/100/2
f 46/32/2 78/81/2 79/100/2 48/77/2
f 41/86/4 69/103/4 76/104/4 43/87/4
f 54/68/6 44/84/6 77/102/6 82/69/6
f 45/43/1 71/79/1 70/101/1 42/83/1
f 48/77/2 79/100/2 80/76/2 50/58/2
f 41/75/9 52/72/9 81/98/9 69/99/9
f 60/62/3 61/21/3 86/105/3 85/106/3
f 56/91/2 77/89/2 70/90/2 63/92/2
f 57/5/11 78/81/11 76/82/11 55/93/11
f 65/94/4 72/80/4 73/78/4 66/95/4
f 64/29/4 71/79/4 72/80/4 65/94/4
f 68/96/1 66/95/1 73/78/1 75/74/1
f 59/52/1 67/97/1 74/73/1 80/76/1
f 67/97/1 68/96/1 75/74/1 74/73/1
f 85/106/12 86/105/12 83/107/12 84/108/12
f 88/109/12 87/71/12 90/70/12 89/110/12
f 52/72/3 54/68/3 87/71/3 88/109/3
f 82/69/5 81/98/5 89/110/5 90/70/5
f 21/63/13 60/62/13 85/106/13 84/108/13
f 61/21/10 35/17/10 83/107/10 86/105/10
f 35/17/5 21/63/5 84/108/5 83/107/5
f 81/98/13 52/72/13 88/109/13 89/110/13
