# Blender v2.83.1 OBJ File: ''
# www.blender.org
mtllib plank.mtl
o Cube
v 0.292133 0.061686 -1.086799
v 0.292133 -0.061686 -1.086799
v 0.232394 0.061686 1.086799
v 0.158311 -0.061686 1.086799
v -0.292133 0.061686 -1.086799
v -0.292133 -0.061686 -1.086799
v -0.246994 0.061686 1.009433
v -0.246994 -0.061686 0.983592
v 0.141128 -0.061686 -1.086799
v 0.141128 0.061686 1.062525
v 0.067044 -0.061686 1.062525
v 0.141128 0.061686 -1.086799
v 0.084235 -0.061686 -0.940157
v 0.084235 0.061686 1.086799
v 0.084235 -0.061686 1.086799
v 0.084235 0.061686 -0.940157
v 0.032558 -0.061686 -1.086799
v 0.032558 0.061686 1.086799
v 0.032558 -0.061686 1.086799
v 0.032558 0.061686 -1.086799
v -0.129787 -0.061686 -1.086799
v -0.129787 0.061686 1.052207
v -0.129787 -0.061686 1.052207
v -0.129787 0.061686 -1.086799
v -0.210960 -0.061686 -1.086799
v -0.210960 0.061686 1.086799
v -0.210960 -0.061686 1.060958
v -0.210960 0.061686 -1.086799
v -0.048615 -0.061686 1.086799
v -0.048615 0.061686 -1.086799
v -0.048615 -0.061686 -1.086799
v -0.048615 0.061686 1.086799
vt 0.840267 0.500000
vt 0.875000 0.500000
vt 0.875000 0.750000
vt 0.840267 0.750000
vt 0.375000 0.965267
vt 0.625000 0.965267
vt 0.625000 1.000000
vt 0.375000 1.000000
vt 0.375000 0.000000
vt 0.625000 0.000000
vt 0.625000 0.250000
vt 0.375000 0.250000
vt 0.310387 0.500000
vt 0.375000 0.500000
vt 0.375000 0.750000
vt 0.310387 0.750000
vt 0.625000 0.500000
vt 0.625000 0.750000
vt 0.375000 0.435387
vt 0.625000 0.435387
vt 0.375000 0.411043
vt 0.625000 0.411043
vt 0.286043 0.500000
vt 0.286043 0.750000
vt 0.625000 0.814613
vt 0.375000 0.814613
vt 0.689613 0.500000
vt 0.689613 0.750000
vt 0.263931 0.500000
vt 0.263931 0.750000
vt 0.375000 0.388931
vt 0.625000 0.388931
vt 0.625000 0.838957
vt 0.375000 0.838957
vt 0.713957 0.500000
vt 0.713957 0.750000
vt 0.375000 0.354198
vt 0.625000 0.354198
vt 0.229198 0.500000
vt 0.229198 0.750000
vt 0.625000 0.861069
vt 0.375000 0.861069
vt 0.736069 0.500000
vt 0.736069 0.750000
vt 0.159733 0.500000
vt 0.194466 0.500000
vt 0.194466 0.750000
vt 0.159733 0.750000
vt 0.375000 0.284733
vt 0.625000 0.284733
vt 0.625000 0.319466
vt 0.375000 0.319466
vt 0.375000 0.895802
vt 0.625000 0.895802
vt 0.625000 0.930534
vt 0.375000 0.930534
vt 0.770802 0.500000
vt 0.805534 0.500000
vt 0.805534 0.750000
vt 0.770802 0.750000
vt 0.125000 0.500000
vt 0.125000 0.750000
vn 0.0000 1.0000 0.0000
vn -0.9030 -0.0881 0.4206
vn -0.9998 -0.0023 0.0217
vn 0.0000 -1.0000 0.0000
vn 0.9569 -0.2873 0.0426
vn 0.0000 0.0000 -1.0000
vn -0.9323 0.0000 -0.3617
vn -0.2540 0.1525 0.9551
vn 0.9432 -0.0000 -0.3324
vn 0.7540 -0.2264 0.6166
vn 0.0000 0.0000 1.0000
vn -0.3920 0.0000 0.9199
vn 0.2566 -0.1007 0.9613
usemtl Material
s off
f 28/1/1 5/2/1 7/3/1 26/4/1
f 27/5/2 26/6/2 7/7/2 8/8/2
f 8/9/3 7/10/3 5/11/3 6/12/3
f 9/13/4 2/14/4 4/15/4 11/16/4
f 2/14/5 1/17/5 3/18/5 4/15/5
f 9/19/6 12/20/6 1/17/6 2/14/6
f 13/21/7 16/22/7 12/20/7 9/19/7
f 13/23/4 9/13/4 11/16/4 15/24/4
f 4/15/8 3/18/8 10/25/8 11/26/8
f 1/17/1 12/27/1 10/28/1 3/18/1
f 17/29/4 13/23/4 15/24/4 19/30/4
f 17/31/9 20/32/9 16/22/9 13/21/9
f 11/26/10 10/25/10 14/33/10 15/34/10
f 12/27/1 16/35/1 14/36/1 10/28/1
f 31/37/6 30/38/6 20/32/6 17/31/6
f 31/39/4 17/29/4 19/30/4 29/40/4
f 15/34/11 14/33/11 18/41/11 19/42/11
f 16/35/1 20/43/1 18/44/1 14/36/1
f 25/45/4 21/46/4 23/47/4 27/48/4
f 25/49/6 28/50/6 24/51/6 21/52/6
f 29/53/12 32/54/12 22/55/12 23/56/12
f 30/57/1 24/58/1 22/59/1 32/60/1
f 6/12/6 5/11/6 28/50/6 25/49/6
f 6/61/4 25/45/4 27/48/4 8/62/4
f 23/56/13 22/55/13 26/6/13 27/5/13
f 24/58/1 28/1/1 26/4/1 22/59/1
f 20/43/1 30/57/1 32/60/1 18/44/1
f 19/42/11 18/41/11 32/54/11 29/53/11
f 21/46/4 31/39/4 29/40/4 23/47/4
f 21/52/6 24/51/6 30/38/6 31/37/6
